<?xml version="1.0" encoding="utf-8"?>
<!-- Generator: Adobe Illustrator 16.0.3, SVG Export Plug-In . SVG Version: 6.00 Build 0)  -->
<!DOCTYPE svg PUBLIC "-//W3C//DTD SVG 1.1//EN" "http://www.w3.org/Graphics/SVG/1.1/DTD/svg11.dtd">
<svg version="1.1" id="Layer_1" xmlns="http://www.w3.org/2000/svg" xmlns:xlink="http://www.w3.org/1999/xlink" x="0px" y="0px"
	 width="512px" height="512px" viewBox="0 0 512 512" enable-background="new 0 0 512 512" xml:space="preserve">
<polyline fill="none" stroke="#000000" stroke-width="2.5" stroke-linecap="round" stroke-linejoin="round" stroke-miterlimit="10" points="
	369.798,301.329 323.578,435.207 86.01,435.207 13.415,222.358 205.185,55.011 354.183,186.633 "/>
<g>
	<path fill="#010202" d="M417.263,159.762c-3.523-3.595-9.37-3.595-13.014,0c-3.531,3.54-3.531,9.409,0,12.893l65.982,65.981
		H252.507c-5.085,0-9.128,4.052-9.128,9.137c0,5.077,4.043,9.241,9.128,9.241h217.725l-65.982,65.862
		c-3.531,3.636-3.531,9.497,0,13.02c3.644,3.628,9.49,3.628,13.014,0L498.86,254.3c3.634-3.523,3.634-9.4,0-12.892L417.263,159.762z
		 M396.426,238.637H178.7c-5.084,0-9.128,4.052-9.128,9.137c0,5.077,4.044,9.241,9.128,9.241h217.726l28.627-2.715
		c3.636-3.523,3.636-9.408,0-12.892L396.426,238.637z"/>
</g>
</svg>
