<?xml version="1.0" encoding="utf-8"?>
<!-- Generator: Adobe Illustrator 16.0.3, SVG Export Plug-In . SVG Version: 6.00 Build 0)  -->
<!DOCTYPE svg PUBLIC "-//W3C//DTD SVG 1.1//EN" "http://www.w3.org/Graphics/SVG/1.1/DTD/svg11.dtd">
<svg version="1.1" id="Layer_1" xmlns="http://www.w3.org/2000/svg" xmlns:xlink="http://www.w3.org/1999/xlink" x="0px" y="0px"
	 width="512px" height="512px" viewBox="0 0 512 512" enable-background="new 0 0 512 512" xml:space="preserve">
<polyline fill="none" stroke="#000000" stroke-width="2.5" stroke-linecap="round" stroke-linejoin="round" stroke-miterlimit="10" points="
	369.798,301.329 323.578,435.207 86.01,435.207 13.415,222.358 205.185,55.011 354.183,186.633 "/>
<g>
	<path fill="#010202" d="M172.555,238.686c-3.64,3.48-3.64,9.368,0,12.879l81.514,81.516c3.521,3.623,9.359,3.623,13,0
		c3.52-3.529,3.52-9.377,0-13.008l-65.915-65.797h217.503c5.082,0,9.122-4.159,9.122-9.23c0-5.079-4.04-9.128-9.122-9.128H201.154
		l65.915-65.915c3.52-3.48,3.52-9.351,0-12.879c-3.641-3.591-9.479-3.591-13,0L172.555,238.686z M246.279,238.686
		c-3.639,3.48-3.639,9.368,0,12.879l28.597,2.71H492.38c5.08,0,9.12-4.159,9.12-9.23c0-5.079-4.04-9.128-9.12-9.128H274.875
		L246.279,238.686z"/>
</g>
</svg>
