<?xml version="1.0" encoding="utf-8"?>
<!-- Generator: Adobe Illustrator 16.0.3, SVG Export Plug-In . SVG Version: 6.00 Build 0)  -->
<!DOCTYPE svg PUBLIC "-//W3C//DTD SVG 1.1//EN" "http://www.w3.org/Graphics/SVG/1.1/DTD/svg11.dtd">
<svg version="1.1" id="Layer_1" xmlns="http://www.w3.org/2000/svg" xmlns:xlink="http://www.w3.org/1999/xlink" x="0px" y="0px"
	 width="512px" height="512px" viewBox="0 0 512 512" enable-background="new 0 0 512 512" xml:space="preserve">
<g>
	<g>
		<g>
			<defs>
				<rect id="SVGID_1_" x="36.604" y="34.816" width="437.616" height="446.368"/>
			</defs>
			<clipPath id="SVGID_2_">
				<use xlink:href="#SVGID_1_"  overflow="visible"/>
			</clipPath>
			<path clip-path="url(#SVGID_2_)" d="M471.753,226.282L260.496,39.667c-2.742-2.43-6.838-2.43-9.625-0.035L39.079,224.421
				c-2.243,1.958-3.054,5.057-2.102,7.879l80.247,235.189c0.988,2.957,3.775,4.951,6.909,4.951h262.211
				c3.1,0,5.885-1.994,6.874-4.916l80.594-233.409C474.781,231.331,473.972,228.231,471.753,226.282L471.753,226.282z
				 M381.162,457.84H129.341L52.371,232.22l203.281-177.39l202.782,179.126L381.162,457.84z"/>
		</g>
	</g>
</g>
<g>
	<g>
		<g>
			<defs>
				<rect id="SVGID_3_" x="200.06" y="121.553" width="261.446" height="264.143"/>
			</defs>
			<clipPath id="SVGID_4_">
				<use xlink:href="#SVGID_3_"  overflow="visible"/>
			</clipPath>
			<path clip-path="url(#SVGID_4_)" d="M202.766,380.311c1.8,1.797,4.033,2.705,6.526,2.705c2.475,0,4.738-0.908,6.527-2.705
				l115.083-115.067l115.059,115.067c1.808,1.797,4.061,2.705,6.527,2.705c2.26,0,4.745-0.908,6.534-2.705
				c3.614-3.615,3.614-9.455,0-13.07L343.966,252.172l115.057-115.075c3.614-3.605,3.614-9.473,0-13.061
				c-3.606-3.615-9.446-3.615-13.062,0L330.903,239.103L215.82,124.036c-3.597-3.615-9.464-3.615-13.053,0
				c-3.615,3.588-3.615,9.456,0,13.061l115.058,115.075L202.766,367.24C199.143,370.846,199.143,376.695,202.766,380.311
				L202.766,380.311z"/>
		</g>
	</g>
</g>
</svg>
