<?xml version="1.0" encoding="utf-8"?>
<!-- Generator: Adobe Illustrator 16.0.3, SVG Export Plug-In . SVG Version: 6.00 Build 0)  -->
<!DOCTYPE svg PUBLIC "-//W3C//DTD SVG 1.1//EN" "http://www.w3.org/Graphics/SVG/1.1/DTD/svg11.dtd">
<svg version="1.1" id="Layer_1" xmlns="http://www.w3.org/2000/svg" xmlns:xlink="http://www.w3.org/1999/xlink" x="0px" y="0px"
	 width="512px" height="512px" viewBox="0 0 512 512" enable-background="new 0 0 512 512" xml:space="preserve">
<g id="Vacas">
	<g>
		
			<line stroke="#000000" stroke-width="4" stroke-linecap="round" stroke-miterlimit="10" x1="490.328" y1="201.755" x2="490.328" y2="353.263"/>
		
			<line stroke="#000000" stroke-width="4" stroke-linecap="round" stroke-linejoin="round" stroke-miterlimit="10" x1="47.232" y1="299.075" x2="13.681" y2="303.566"/>
		<path d="M459.891,291.466c-0.737,1.747-1.109,3.708-1.109,5.634v77.871c0,1.143,0.128,2.251,0.407,3.349
			c-0.035,0.713-0.162,1.758-0.322,3.26c0,0.053-1.207,8.372-12.353,8.372c-6.356,0-8.814-3.068-9.614-4.322
			c-0.1-0.231,0,0-0.261-0.475l-25.183-52.04c-2.198-4.439-6.034-7.95-11.012-8.6c-4.833-0.658-9.383,0.731-12.652,4.353
			c-0.96,0.701-5.251,3.526-13.081,3.526c-1.468,0-3.052-0.098-4.653-0.275c-9.544-1.29-13.461-14.798-13.461-14.798
			c-1.63-6.641-7.621-11.245-14.396-11.245h-95.644c-6.037,0-11.505,3.671-13.786,9.284c-11.999,29.307-26.177,62.466-29.068,67.27
			c-3.067,4.99-4.468,7.243-14.048,7.243c-3.214,0-5.68-0.57-6.559-1.532c-0.993-1.079-1.274-3.61-1.239-4.88
			c0.079-0.528,0.079-0.592,0.079-1.149l2.495-65.548c0.116-4.08-1.387-7.983-4.192-10.937c-2.809-2.854-6.711-4.534-10.708-4.534
			h-0.035l-53.114,0.246c-5.712,0-10.937,3.308-13.368,8.483c-0.229,0.408-19.402,40.714-23.827,49.249l-0.911,1.795
			c-3.806,7.425-3.984,7.703-10.003,7.836c-4.245,0-6.22-2.825-6.969-4.232c-0.247-0.636-0.247-0.636-0.575-1.239l-33.583-63.773
			l110.968-131.645c5.108-4.535,18.621-15.34,30.333-20.2c10.546-4.391,21.643-4.848,25.85-4.848c1.39,0,2.236,0.018,2.367,0.065
			c0.359,0.032,0.752,0.032,1.114,0.032h244.439l56.101,53.999L459.891,291.466z"/>
	</g>
</g>
</svg>
