<?xml version="1.0" encoding="utf-8"?>
<!-- Generator: Adobe Illustrator 16.0.3, SVG Export Plug-In . SVG Version: 6.00 Build 0)  -->
<!DOCTYPE svg PUBLIC "-//W3C//DTD SVG 1.1//EN" "http://www.w3.org/Graphics/SVG/1.1/DTD/svg11.dtd">
<svg version="1.1" id="Layer_1" xmlns="http://www.w3.org/2000/svg" xmlns:xlink="http://www.w3.org/1999/xlink" x="0px" y="0px"
	 width="512px" height="512px" viewBox="0 0 512 512" enable-background="new 0 0 512 512" xml:space="preserve">
<g>
	<path d="M461.433,124.06L429.24,76.701c-3.159-4.652-8.407-7.424-14.028-7.424c-5.623,0-10.883,2.771-14.031,7.424l-32.19,47.359
		c-1.912,2.816-2.938,6.143-2.938,9.544v41.337H306.84v-41.337c0-3.402-1.017-6.729-2.928-9.544l-32.191-47.359
		c-3.161-4.652-8.418-7.424-14.041-7.424c-5.61,0-10.872,2.771-14.029,7.424l-32.193,47.359c-1.912,2.816-2.927,6.143-2.927,9.544
		v41.337h-59.21v-41.337c0-3.402-1.03-6.729-2.938-9.544L114.19,76.701c-3.159-4.652-8.407-7.424-14.031-7.424
		c-5.621,0-10.881,2.771-14.03,7.424l-32.19,47.359c-1.913,2.816-2.939,6.143-2.939,9.544v301.939
		c0,9.379,7.601,16.968,16.968,16.968h64.384c9.367,0,16.968-7.589,16.968-16.968V402.49h59.21v33.054
		c0,9.379,7.591,16.968,16.969,16.968h64.371c9.378,0,16.969-7.589,16.969-16.968V402.49h59.213v33.054
		c0,9.379,7.6,16.968,16.968,16.968h64.381c9.368,0,16.97-7.589,16.97-16.968V133.604
		C464.371,130.203,463.344,126.876,461.433,124.06L461.433,124.06z M208.521,345.696h-59.2V231.734h59.21v113.962H208.521z
		 M306.84,231.734h59.213v113.952H306.84V231.734z M306.84,231.734"/>
</g>
</svg>
