<?xml version="1.0" encoding="utf-8"?>
<!-- Generator: Adobe Illustrator 16.0.3, SVG Export Plug-In . SVG Version: 6.00 Build 0)  -->
<!DOCTYPE svg PUBLIC "-//W3C//DTD SVG 1.1//EN" "http://www.w3.org/Graphics/SVG/1.1/DTD/svg11.dtd">
<svg version="1.1" id="Layer_1" xmlns="http://www.w3.org/2000/svg" xmlns:xlink="http://www.w3.org/1999/xlink" x="0px" y="0px"
	 width="512px" height="512px" viewBox="0 0 512 512" enable-background="new 0 0 512 512" xml:space="preserve">
<g>
	<path id="SVGCleanerId_0_1_" fill="#D8143A" d="M409.145,201.847c0-87.638-71.3-158.937-158.936-158.937
		c-87.636,0-158.935,71.299-158.935,158.937c0,79.876,59.233,146.167,136.079,157.286v29.71h-28.17
		c-12.624,0-22.858,10.234-22.858,22.856c0,12.623,10.234,22.857,22.858,22.857h28.17l0.001,28.173
		c0,12.625,10.235,22.856,22.857,22.856c12.624,0,22.857-10.233,22.857-22.857l-0.002-28.172h28.171
		c12.623,0,22.856-10.234,22.856-22.857c0-12.622-10.233-22.856-22.856-22.856h-28.171v-29.71
		C349.911,348.017,409.145,281.724,409.145,201.847z M250.209,315.071c-62.431,0-113.222-50.794-113.222-113.224
		c0.002-62.432,50.792-113.223,113.222-113.223c62.428,0,113.221,50.792,113.221,113.223
		C363.43,264.277,312.64,315.071,250.209,315.071z"/>
</g>
</svg>
