<?xml version="1.0" encoding="utf-8"?>
<!-- Generator: Adobe Illustrator 16.0.3, SVG Export Plug-In . SVG Version: 6.00 Build 0)  -->
<!DOCTYPE svg PUBLIC "-//W3C//DTD SVG 1.1//EN" "http://www.w3.org/Graphics/SVG/1.1/DTD/svg11.dtd">
<svg version="1.1" id="Layer_1" xmlns="http://www.w3.org/2000/svg" xmlns:xlink="http://www.w3.org/1999/xlink" x="0px" y="0px"
	 width="512px" height="512px" viewBox="0 0 512 512" enable-background="new 0 0 512 512" xml:space="preserve">
<g id="Cabras">
	<g>
		<path d="M434.118,336.376c-0.588,1.702-0.846,3.407-0.879,5.181l-0.487,11.566c0,0.399,0,0.751,0,1.133l1.202,81.937
			c0,0.277,0,0.231,0,0.441c0,2.086-0.359,4.921-0.887,6.71c-0.841,0.044-1.72,0.148-2.521,0.235
			c-1.056,0.085-2.565,0.19-3.579,0.295c-0.736-1.159-2.202-3.852-3.616-9.319c-14.268-52.573-18.998-65.911-19.525-67.255
			c-3.108-8.578-11.188-14.196-20.299-14.196H220.9c-9.948,0-18.661,6.878-20.995,16.553c-0.101,0.485-2.901,11.884-16.915,63.738
			c-2.184,8.056-4.503,10.098-4.503,10.098c-0.882,0.277-3.994,0.068-5.782-0.104c-0.422,0-0.931-0.037-1.35-0.037
			c-0.527-1.792-1.014-4.585-0.901-6.5c0-0.381,0-0.822,0-1.241l-1.051-86.357c0-2.251-0.486-4.794-1.159-6.896
			c-0.064-0.082-0.105-0.25-0.105-0.418L125.926,223.29c-2.023-7.534-11.256-34.965-41.697-49.647
			c-28.688-13.926-62.03-15.144-63.44-15.187H20.62c-1.137-2.356-2.102-4.461-2.842-6.249c7.322-10.414,26.253-30.774,68.115-43.395
			c2.479-0.735,4.876-1.41,7.299-2.042c14.787,25.158,52.383,85.511,84.981,106.063c24.068,15.208,57.917,14.725,63.807,14.513
			l172.198-0.317l42.029,32.501L434.118,336.376z"/>
		
			<line fill="none" stroke="#201410" stroke-width="4" stroke-linecap="round" stroke-miterlimit="10" x1="93.196" y1="114.242" x2="131.989" y2="106.434"/>
		
			<line fill="none" stroke="#201410" stroke-width="4" stroke-linecap="round" stroke-miterlimit="10" x1="441.948" y1="257.42" x2="484.223" y2="295.742"/>
	</g>
</g>
</svg>
