<?xml version="1.0" encoding="utf-8"?>
<!-- Generator: Adobe Illustrator 16.0.3, SVG Export Plug-In . SVG Version: 6.00 Build 0)  -->
<!DOCTYPE svg PUBLIC "-//W3C//DTD SVG 1.1//EN" "http://www.w3.org/Graphics/SVG/1.1/DTD/svg11.dtd">
<svg version="1.1" id="Layer_1" xmlns="http://www.w3.org/2000/svg" xmlns:xlink="http://www.w3.org/1999/xlink" x="0px" y="0px"
	 width="512px" height="512px" viewBox="0 0 512 512" enable-background="new 0 0 512 512" xml:space="preserve">
<g id="Caballos">
	<g>
		<g>
			
				<line fill="none" stroke="#201410" stroke-width="4" stroke-linecap="round" stroke-miterlimit="10" x1="474.308" y1="221.731" x2="474.308" y2="377.722"/>
			<path d="M446.909,294.362c-0.855,1.94-1.332,4.105-1.332,6.271v137.941c0,4.487-1.563,6.052-2.068,6.554
				c-1.928,1.845-5.005,2.383-6.533,2.438c-2.67-0.055-6.268-7.444-7.242-12.098c-0.133-0.724-0.383-1.481-0.587-2.186
				l-46.538-129.958c-2.233-6.131-8.229-10.144-14.67-10.144h-0.113l-138.78,0.03c-7.473,0-13.827,5.36-15.116,12.734
				c-0.135,0.912-15.293,89.653-27.017,134.713c-1.431,5.426-2.84,7.564-3.393,8.131c-0.675,0.101-2.002,0-2.939-0.029l-0.923-0.036
				c-0.893-1.213-1.983-4.182-2.271-6.517l-4.704-135.49c-0.084-2.266-0.741-4.553-1.813-6.583L99.194,164.466
				c-3.429-6.469-10.986-9.596-17.957-7.475c-0.439,0.097-46.222,14.029-61.326,18.312c-0.371,0.1-0.759,0.25-1.01,0.288
				c-0.756-1.093-1.63-2.809-2.384-4.032c-0.391-0.703-0.758-1.427-1.179-2.116c-1.159-2.102-1.294-3.581-1.209-4.436l63.561-66.314
				c2.452-2.503,3.927-5.78,4.265-9.289l1.043-12.602c6.317-0.522,16.144,0.838,27.521,10.553c0.03,0.082,0.102,0.112,0.102,0.112
				l91.209,84.918c0.12,0.15,0.272,0.268,0.377,0.353c21.902,19.034,46.467,20.124,53.225,20.124
				c0.198,0.039,0.418,0.039,0.619,0.039h171.789c0.844,0.15,1.647,0.186,2.537,0.167c6.52-0.102,27.117,1.511,37.589,10.161
				c3.523,2.946,9.016,7.646,14.378,12.181L446.909,294.362z"/>
		</g>
		<g>
			<polygon points="114.613,91.948 232.674,160.251 203.349,195.531 			"/>
		</g>
	</g>
</g>
</svg>
