<?xml version="1.0" encoding="utf-8"?>
<!-- Generator: Adobe Illustrator 16.0.3, SVG Export Plug-In . SVG Version: 6.00 Build 0)  -->
<!DOCTYPE svg PUBLIC "-//W3C//DTD SVG 1.1//EN" "http://www.w3.org/Graphics/SVG/1.1/DTD/svg11.dtd">
<svg version="1.1" id="Layer_1" xmlns="http://www.w3.org/2000/svg" xmlns:xlink="http://www.w3.org/1999/xlink" x="0px" y="0px"
	 width="512px" height="512px" viewBox="0 0 512 512" enable-background="new 0 0 512 512" xml:space="preserve">
<g>
	<path fill="#50C8EF" d="M216.93,470.412c-85.72,0-155.457-69.738-155.457-155.459c0-85.715,69.737-155.452,155.457-155.452
		c85.716,0,155.452,69.737,155.452,155.452C372.382,400.674,302.646,470.412,216.93,470.412z M216.93,217.642
		c-53.662,0-97.319,43.655-97.319,97.315c0,53.662,43.653,97.32,97.319,97.32c53.657,0,97.319-43.654,97.319-97.32
		C314.245,261.297,270.586,217.642,216.93,217.642z"/>
	<polygon fill="#50C8EF" points="461.752,225.587 403.615,225.587 403.615,128.267 306.295,128.267 306.295,70.13 461.752,70.13 	
		"/>
	
		<rect x="340.412" y="73.035" transform="matrix(0.7071 0.7071 -0.7071 0.7071 223.0491 -213.6931)" fill="#50C8EF" width="58.135" height="178.735"/>
</g>
</svg>
