<?xml version="1.0" encoding="utf-8"?>
<!-- Generator: Adobe Illustrator 16.0.3, SVG Export Plug-In . SVG Version: 6.00 Build 0)  -->
<!DOCTYPE svg PUBLIC "-//W3C//DTD SVG 1.1//EN" "http://www.w3.org/Graphics/SVG/1.1/DTD/svg11.dtd">
<svg version="1.1" id="Layer_1" xmlns="http://www.w3.org/2000/svg" xmlns:xlink="http://www.w3.org/1999/xlink" x="0px" y="0px"
	 width="512px" height="512px" viewBox="0 0 512 512" enable-background="new 0 0 512 512" xml:space="preserve">
<g id="Cobertura">
	<g display="none">
		<path display="inline" fill="#8ABD24" d="M486.96,376.499c-11.343-97.511-57.804-187.936-140.265-253.214
			c-82.463-65.276-182.791-91.041-278.647-78.39c-5.909,0.684-10.167,2.678-14.084,7.628c-3.917,4.947-4.879,9.55-4.191,15.461
			l4.812,41.367c1.374,11.816,11.271,19.65,23.089,18.275c73.871-8.59,152.483,10.71,216.801,61.627
			c64.319,50.912,101.155,122.997,109.749,196.864c1.382,11.818,11.276,19.65,23.094,18.281l41.366-4.813
			c5.908-0.691,10.17-2.681,14.084-7.626C486.683,387.013,488.951,380.757,486.96,376.499L486.96,376.499z"/>
		<path display="inline" fill="#8ABD24" d="M242.254,255.229c-46.182-36.556-100.124-49.746-153.31-43.558
			c-11.816,1.377-19.652,11.273-18.275,23.089l4.811,41.367c1.374,11.816,11.271,19.646,23.087,18.276
			c32.505-3.778,65.077,5.906,91.462,26.798c26.391,20.884,41.991,52.015,47.074,82.862c1.382,11.823,11.273,19.652,23.094,18.283
			l41.364-4.815c11.819-1.374,19.65-11.271,18.276-23.085C313.653,341.255,288.433,291.781,242.254,255.229L242.254,255.229z"/>
		<path display="inline" fill="#8ABD24" d="M144.686,446.268c-14.419,18.21-40.877,21.296-59.095,6.872
			c-18.221-14.419-21.295-40.883-6.877-59.096c14.421-18.219,40.877-21.298,59.096-6.874
			C156.03,401.591,159.11,428.048,144.686,446.268L144.686,446.268z"/>
	</g>
	<g display="none">
		<path display="inline" fill="#FFFFFF" d="M486.96,376.499c-11.343-97.511-57.804-187.936-140.265-253.214
			c-82.463-65.276-182.791-91.041-278.647-78.39c-5.909,0.684-10.167,2.678-14.084,7.628c-3.917,4.947-4.879,9.55-4.191,15.461
			l4.812,41.367c1.374,11.816,11.271,19.65,23.089,18.275c73.871-8.59,152.483,10.71,216.801,61.627
			c64.319,50.912,101.155,122.997,109.749,196.864c1.382,11.818,11.276,19.65,23.094,18.281l41.366-4.813
			c5.908-0.691,10.17-2.681,14.084-7.626C486.683,387.013,488.951,380.757,486.96,376.499L486.96,376.499z"/>
		<path display="inline" fill="#FFFFFF" d="M242.254,255.229c-46.182-36.556-100.124-49.746-153.31-43.558
			c-11.816,1.377-19.652,11.273-18.275,23.089l4.811,41.367c1.374,11.816,11.271,19.646,23.087,18.276
			c32.505-3.778,65.077,5.906,91.462,26.798c26.391,20.884,41.991,52.015,47.074,82.862c1.382,11.823,11.273,19.652,23.094,18.283
			l41.364-4.815c11.819-1.374,19.65-11.271,18.276-23.085C313.653,341.255,288.433,291.781,242.254,255.229L242.254,255.229z"/>
		<path display="inline" fill="#FFFFFF" d="M144.686,446.268c-14.419,18.21-40.877,21.296-59.095,6.872
			c-18.221-14.419-21.295-40.883-6.877-59.096c14.421-18.219,40.877-21.298,59.096-6.874
			C156.03,401.591,159.11,428.048,144.686,446.268L144.686,446.268z"/>
	</g>
	<g>
		<path d="M486.96,376.499c-11.343-97.511-57.804-187.936-140.265-253.214c-82.463-65.276-182.791-91.041-278.647-78.39
			c-5.909,0.684-10.167,2.678-14.084,7.628c-3.917,4.947-4.879,9.55-4.191,15.461l4.812,41.367
			c1.374,11.816,11.271,19.65,23.089,18.275c73.871-8.59,152.483,10.71,216.801,61.627
			c64.319,50.912,101.155,122.997,109.749,196.864c1.382,11.818,11.276,19.65,23.094,18.281l41.366-4.813
			c5.908-0.691,10.17-2.681,14.084-7.626C486.683,387.013,488.951,380.757,486.96,376.499L486.96,376.499z"/>
		<path d="M242.254,255.229c-46.182-36.556-100.124-49.746-153.31-43.558c-11.816,1.377-19.652,11.273-18.275,23.089l4.811,41.367
			c1.374,11.816,11.271,19.646,23.087,18.276c32.505-3.778,65.077,5.906,91.462,26.798c26.391,20.884,41.991,52.015,47.074,82.862
			c1.382,11.823,11.273,19.652,23.094,18.283l41.364-4.815c11.819-1.374,19.65-11.271,18.276-23.085
			C313.653,341.255,288.433,291.781,242.254,255.229L242.254,255.229z"/>
		<path d="M144.686,446.268c-14.419,18.21-40.877,21.296-59.095,6.872c-18.221-14.419-21.295-40.883-6.877-59.096
			c14.421-18.219,40.877-21.298,59.096-6.874C156.03,401.591,159.11,428.048,144.686,446.268L144.686,446.268z"/>
	</g>
</g>
</svg>
