<?xml version="1.0" encoding="utf-8"?>
<!-- Generator: Adobe Illustrator 16.0.3, SVG Export Plug-In . SVG Version: 6.00 Build 0)  -->
<!DOCTYPE svg PUBLIC "-//W3C//DTD SVG 1.1//EN" "http://www.w3.org/Graphics/SVG/1.1/DTD/svg11.dtd">
<svg version="1.1" id="Layer_1" xmlns="http://www.w3.org/2000/svg" xmlns:xlink="http://www.w3.org/1999/xlink" x="0px" y="0px"
	 width="512px" height="512px" viewBox="0 0 512 512" enable-background="new 0 0 512 512" xml:space="preserve">
<g>
	<g>
		<line fill="none" stroke="#000000" stroke-width="5" stroke-miterlimit="2" x1="171.98" y1="231.887" x2="171.98" y2="231.887"/>
		
			<line fill="none" stroke="#000000" stroke-width="5" stroke-miterlimit="2" x1="179.768" y1="139.345" x2="179.768" y2="139.332"/>
		
			<line fill="none" stroke="#000000" stroke-width="5" stroke-miterlimit="2" x1="180.317" y1="449.898" x2="180.372" y2="450.141"/>
		
			<line fill="none" stroke="#000000" stroke-width="5" stroke-miterlimit="2" x1="180.317" y1="449.886" x2="180.372" y2="450.141"/>
		<polyline fill="none" stroke="#000000" stroke-width="5" stroke-miterlimit="2" points="223.489,82.467 223.999,82.493 
			224.948,82.56 225.886,82.641 226.835,82.735 227.773,82.855 228.71,83.001 229.646,83.162 230.572,83.351 231.506,83.55 
			232.43,83.778 233.342,84.02 234.253,84.274 235.163,84.554 236.059,84.863 236.956,85.184 237.84,85.519 238.725,85.881 
			239.593,86.256 240.45,86.657 241.307,87.059 242.15,87.501 242.98,87.942 243.809,88.409 244.627,88.905 245.43,89.401 
			246.22,89.922 247.009,90.459 247.773,91.008 248.536,91.582 249.271,92.172 250.008,92.775 250.73,93.391 251.441,94.02 
			252.136,94.676 252.806,95.33 253.475,96.015 254.118,96.697 254.76,97.407 255.375,98.129 329.055,185.45 329.082,185.477 
			329.684,186.212 330.287,186.948 330.876,187.685 331.451,188.435 332.027,189.196 332.59,189.96 333.138,190.724 
			333.687,191.513 334.223,192.29 334.744,193.08 335.253,193.881 335.763,194.686 336.257,195.489 336.74,196.306 337.222,197.121 
			337.69,197.951 338.145,198.782 338.586,199.625 339.029,200.467 339.444,201.312 339.859,202.169 340.273,203.024 
			340.662,203.883 341.049,204.753 341.424,205.623 341.786,206.506 342.134,207.375 342.482,208.272 342.804,209.157 
			343.125,210.052 343.432,210.949 343.74,211.846 344.022,212.744 344.303,213.655 344.571,214.565 344.824,215.489 
			345.065,216.398 345.292,217.321 345.52,218.247 345.721,219.17 345.923,220.092 346.11,221.031 346.283,221.955 346.457,222.89 
			346.605,223.829 346.751,224.765 346.886,225.703 347.008,226.64 347.114,227.59 347.207,228.525 347.301,229.477 
			347.368,230.427 347.435,231.364 347.489,232.314 347.528,233.264 347.556,234.215 347.57,235.152 347.583,236.103 
			347.583,330.974 347.583,331.001 347.57,331.952 347.556,332.901 347.528,333.852 347.489,334.789 347.435,335.741 
			347.368,336.689 347.287,337.642 347.207,338.578 347.114,339.526 346.993,340.464 346.886,341.4 346.751,342.352 
			346.605,343.288 346.445,344.212 346.283,345.149 346.11,346.085 345.923,347.012 345.721,347.948 345.507,348.87 
			345.292,349.797 345.052,350.705 344.812,351.63 344.558,352.538 344.288,353.448 344.009,354.359 343.727,355.256 
			343.432,356.167 343.111,357.063 342.804,357.947 342.469,358.845 342.121,359.729 341.772,360.61 341.411,361.479 
			341.036,362.352 340.649,363.221 340.26,364.08 339.845,364.946 339.43,365.791 339.015,366.648 338.573,367.49 338.131,368.322 
			337.676,369.152 337.208,369.981 336.726,370.798 336.243,371.613 335.748,372.416 335.24,373.223 334.731,374.024 
			334.197,374.814 333.673,375.604 333.124,376.38 332.575,377.144 332.013,377.908 331.438,378.668 330.863,379.42 
			330.275,380.155 329.671,380.891 329.055,381.628 255.375,468.961 255.041,469.335 254.425,470.06 253.783,470.755 
			253.115,471.438 252.445,472.107 251.762,472.763 251.065,473.392 250.343,474.021 249.621,474.638 248.884,475.226 
			248.133,475.802 247.359,476.363 246.581,476.913 245.805,477.435 245.001,477.942 244.187,478.438 243.367,478.921 
			242.538,479.375 241.694,479.818 240.852,480.245 239.995,480.649 239.123,481.036 238.254,481.396 237.372,481.744 
			236.474,482.065 235.577,482.387 234.68,482.669 233.769,482.949 232.859,483.189 231.936,483.432 231.013,483.632 
			230.075,483.834 229.152,484.008 228.215,484.155 227.277,484.288 226.328,484.395 225.389,484.49 224.441,484.559 
			223.489,484.61 223.489,484.648 222.82,484.648 221.87,484.622 220.932,484.583 219.983,484.515 219.031,484.421 218.095,484.331 
			217.156,484.193 216.219,484.049 215.284,483.889 214.359,483.699 213.423,483.486 212.513,483.271 211.589,483.017 
			210.677,482.748 209.768,482.468 208.871,482.161 207.987,481.838 207.103,481.503 206.222,481.144 205.35,480.754 
			204.494,480.367 203.636,479.938 202.795,479.508 201.963,479.054 201.147,478.587 200.33,478.091 199.529,477.595 
			198.737,477.059 197.947,476.526 197.186,475.976 196.436,475.399 195.686,474.81 194.951,474.209 194.24,473.578 
			193.531,472.952 192.847,472.295 192.166,471.639 191.509,470.956 190.854,470.258 190.224,469.551 189.61,468.829 
			189.004,468.092 188.417,467.354 187.855,466.594 187.306,465.817 186.769,465.039 186.25,464.251 185.74,463.444 185.259,462.63 
			184.788,461.801 184.346,460.969 183.907,460.111 183.505,459.27 183.102,458.399 182.728,457.527 182.366,456.645 
			182.031,455.761 181.711,454.863 181.414,453.967 181.135,453.07 180.865,452.148 180.626,451.237 180.41,450.314 180.21,449.389 
			180.023,448.453 179.861,447.518 179.729,446.578 179.596,445.642 179.502,444.703 179.498,444.703 179.529,443.657 
			179.572,442.594 179.615,441.532 179.648,440.468 179.69,439.409 179.733,438.345 179.766,437.299 179.807,436.235 
			179.836,435.174 179.882,434.109 179.911,433.048 179.954,431.999 179.984,430.938 180.029,429.874 180.057,428.813 
			180.102,427.748 180.132,426.687 180.16,425.638 180.205,424.576 180.232,423.516 180.265,422.453 180.307,421.39 
			180.336,420.328 180.368,419.279 180.41,418.218 180.439,417.154 180.467,416.093 180.499,415.028 180.542,413.967 
			180.571,412.918 180.6,411.856 180.631,410.793 180.66,409.733 180.687,408.67 180.718,407.608 180.747,406.56 180.778,405.498 
			180.805,404.435 180.849,403.373 180.881,402.309 180.909,401.247 180.923,400.198 180.953,399.137 180.984,398.073 
			181.013,397.012 181.042,395.947 181.071,394.889 181.102,393.838 181.131,392.778 181.159,391.715 181.174,390.653 
			181.201,389.589 181.234,388.526 181.262,387.479 181.277,386.417 181.304,385.354 181.333,384.292 181.351,383.228 
			181.38,382.166 181.409,381.102 181.422,380.056 181.451,378.992 181.484,377.934 181.498,376.867 181.525,375.807 
			181.541,374.742 181.569,373.682 181.583,372.634 181.615,371.572 181.63,370.508 181.658,369.446 181.672,368.382 181.7,367.32 
			181.719,366.272 181.733,365.211 181.76,364.147 181.776,363.086 181.789,362.022 181.82,360.961 181.835,359.896 
			181.849,358.851 181.864,357.787 181.893,356.727 181.907,355.662 181.921,354.601 181.937,353.538 181.95,352.479 
			181.982,351.427 181.997,350.366 182.01,349.303 182.025,348.242 182.039,347.178 182.055,346.118 182.068,345.056 
			182.085,344.006 182.1,342.942 182.114,341.881 182.128,340.819 182.142,339.758 182.158,338.694 182.171,337.634 
			182.185,336.583 182.202,335.522 182.218,334.46 182.218,333.398 182.231,332.334 182.245,331.273 182.26,330.21 182.276,329.164 
			182.276,328.1 182.289,327.038 182.303,325.975 182.318,324.913 182.318,323.85 182.334,322.787 182.349,321.723 182.349,320.679 
			182.363,319.614 182.363,318.553 182.379,317.487 182.379,316.429 182.392,315.364 182.406,314.301 182.406,313.255 
			182.421,312.193 182.421,311.129 182.421,310.067 182.436,309.003 182.436,307.939 182.452,306.878 182.452,305.832 
			182.452,304.768 182.467,303.709 182.467,302.645 182.467,301.58 182.481,300.519 182.481,299.455 182.481,298.394 
			182.496,297.348 182.496,296.283 182.496,295.22 182.496,294.158 182.496,293.094 182.496,292.035 182.51,290.97 182.51,289.922 
			182.51,288.86 182.51,287.799 182.51,286.735 182.51,285.672 182.51,284.609 182.51,283.547 182.51,282.485 182.51,281.438 
			182.51,280.377 182.51,279.312 182.51,278.25 182.51,277.188 182.51,276.124 182.496,275.063 182.496,274.016 182.496,272.952 
			182.496,271.89 182.496,270.827 182.496,269.766 182.481,268.702 182.481,267.641 182.481,266.578 182.481,265.53 
			182.467,264.467 182.467,263.404 182.467,262.343 182.452,261.281 182.452,260.219 182.436,259.156 182.436,258.107 
			182.436,257.045 182.421,255.984 182.421,254.921 182.406,253.858 182.406,252.796 182.392,251.733 182.392,250.686 
			182.379,249.623 182.363,248.562 182.363,247.499 182.349,246.436 182.349,245.373 182.334,244.31 182.318,243.248 182.318,242.2 
			182.303,241.139 182.289,240.076 182.276,239.013 182.276,237.95 182.26,236.888 182.245,235.825 182.231,234.779 
			182.218,233.716 182.218,232.652 182.202,231.59 182.185,230.528 182.171,229.465 182.158,228.403 182.142,227.356 
			182.128,226.292 182.114,225.231 182.1,224.168 182.085,223.105 182.068,222.044 182.055,220.981 182.039,219.933 182.025,218.87 
			182.01,217.809 181.997,216.746 181.982,215.683 181.967,214.621 181.937,213.559 181.921,212.51 181.907,211.447 
			181.893,210.386 181.88,209.323 181.849,208.26 181.835,207.199 181.82,206.135 181.789,205.087 181.776,204.026 181.76,202.963 
			181.733,201.9 181.719,200.839 181.7,199.775 181.672,198.712 181.658,197.666 181.63,196.603 181.615,195.541 181.583,194.477 
			181.569,193.416 181.541,192.353 181.525,191.291 181.498,190.243 181.484,189.181 181.451,188.117 181.438,187.056 
			181.409,185.993 181.38,184.93 181.365,183.883 181.333,182.82 181.304,181.757 181.291,180.696 181.262,179.633 181.234,178.57 
			181.201,177.507 181.174,176.46 181.159,175.397 181.131,174.336 181.102,173.273 181.071,172.21 181.042,171.147 181.013,170.1 
			180.984,169.038 180.967,167.976 180.938,166.913 180.909,165.85 180.881,164.789 180.849,163.739 180.821,162.678 
			180.792,161.615 180.763,160.553 180.718,159.49 180.687,158.429 180.66,157.38 180.631,156.317 180.6,155.255 180.571,154.192 
			180.542,153.13 180.513,152.068 180.467,151.021 180.439,149.958 180.41,148.895 180.382,147.833 180.336,146.771 
			180.307,145.708 180.278,144.661 180.232,143.598 180.205,142.535 180.175,141.474 180.132,140.411 180.102,139.348 
			180.057,138.299 180.029,137.238 179.984,136.175 179.954,135.114 179.911,134.051 179.882,132.989 179.836,131.939 
			179.807,130.877 179.766,129.815 179.733,128.752 179.69,127.691 179.661,126.641 179.615,125.58 179.572,124.518 
			179.545,123.456 179.498,122.393 179.498,122.316 179.502,122.385 179.57,121.715 179.689,120.764 179.823,119.829 
			179.983,118.892 180.158,117.967 180.346,117.03 180.56,116.107 180.8,115.197 181.054,114.286 181.334,113.376 181.63,112.466 
			181.938,111.568 182.273,110.686 182.621,109.802 182.994,108.931 183.384,108.063 183.784,107.204 184.212,106.362 
			184.654,105.531 185.123,104.701 185.605,103.871 186.099,103.069 186.609,102.279 187.147,101.489 187.693,100.713 
			188.258,99.949 188.832,99.2 189.434,98.464 190.035,97.741 190.666,97.031 191.309,96.334 191.978,95.639 192.648,94.97 
			193.33,94.326 194.024,93.685 194.748,93.056 195.47,92.453 196.209,91.852 196.959,91.275 197.733,90.713 198.51,90.165 
			199.286,89.641 200.091,89.132 200.907,88.637 201.721,88.156 202.553,87.702 203.395,87.26 204.24,86.843 205.095,86.443 
			205.965,86.055 206.837,85.679 207.72,85.332 208.617,85.009 209.514,84.703 210.411,84.408 211.319,84.141 212.231,83.885 
			213.155,83.659 214.079,83.443 215.015,83.244 215.939,83.083 216.877,82.922 217.813,82.788 218.764,82.682 219.7,82.587 
			220.652,82.521 221.601,82.467 222.552,82.439 223.489,82.427 		"/>
		<polyline fill="none" stroke="#000000" stroke-width="5" stroke-miterlimit="2" points="181.214,206.506 170.573,238.003 
			170.17,238.861 169.783,239.73 169.409,240.602 169.046,241.485 168.685,242.354 168.35,243.239 168.016,244.134 167.681,245.02 
			167.373,245.916 167.067,246.812 166.771,247.724 166.489,248.62 166.222,249.53 165.956,250.439 165.713,251.364 165.47,252.275 
			165.243,253.198 165.03,254.121 164.816,255.045 164.629,255.968 164.442,256.905 164.267,257.844 164.107,258.768 
			163.948,259.703 163.812,260.641 163.677,261.59 163.558,262.529 163.451,263.466 163.357,264.416 163.262,265.354 
			163.195,266.304 163.128,267.254 163.073,268.204 163.035,269.142 163.008,270.092 162.996,271.043 162.98,271.993 
			162.98,272.943 162.996,273.894 163.022,274.831 163.061,275.783 163.116,276.731 163.169,277.683 163.235,278.619 
			163.331,279.568 163.408,280.521 163.515,281.456 163.636,282.395 163.757,283.344 163.893,284.28 164.055,285.219 
			164.201,286.156 164.374,287.078 164.562,288.017 164.75,288.94 164.951,289.862 165.166,290.801 165.393,291.711 
			165.621,292.634 165.875,293.543 166.128,294.471 166.398,295.379 166.677,296.275 166.96,297.186 167.265,298.084 
			167.574,298.98 167.896,299.877 168.23,300.761 168.565,301.644 168.925,302.527 169.286,303.411 169.663,304.282 
			170.035,305.149 170.44,306.008 170.573,306.303 170.035,305.149 181.617,338.898 		"/>
	</g>
</g>
<g>
	<path d="M360.017,12.282c37.862,0,68.541,30.679,68.541,68.542c0,37.838-30.679,68.543-68.541,68.543
		c-37.837,0-68.543-30.706-68.543-68.543C291.474,42.961,322.181,12.282,360.017,12.282L360.017,12.282z M360.017,29.413
		c-11.083,0-21.291,3.619-29.703,9.601l71.516,71.492c6.003-8.414,9.601-18.615,9.601-29.681
		C411.432,52.483,388.358,29.413,360.017,29.413L360.017,29.413z M360.017,132.211c11.106,0,21.316-3.593,29.701-9.601
		l-71.511-71.467c-5.984,8.388-9.58,18.59-9.58,29.681C308.627,109.167,331.675,132.211,360.017,132.211L360.017,132.211z"/>
</g>
</svg>
