<?xml version="1.0" encoding="utf-8"?>
<!-- Generator: Adobe Illustrator 16.0.3, SVG Export Plug-In . SVG Version: 6.00 Build 0)  -->
<!DOCTYPE svg PUBLIC "-//W3C//DTD SVG 1.1//EN" "http://www.w3.org/Graphics/SVG/1.1/DTD/svg11.dtd">
<svg version="1.1" id="Layer_1" xmlns="http://www.w3.org/2000/svg" xmlns:xlink="http://www.w3.org/1999/xlink" x="0px" y="0px"
	 width="512px" height="512px" viewBox="0 0 512 512" enable-background="new 0 0 512 512" xml:space="preserve">
<g id="Sobreactividad">
	<g display="none">
		<path display="inline" fill="#8ABD24" d="M32.443,301.543h56.064c5.241,0,9.851-3.527,11.251-8.558l17.186-62.18l24.558,136.374
			c1.081,5.975,6.459,10.166,12.505,9.543c6.01-0.529,10.654-5.555,10.654-11.603v-63.577h33.181c5.805,0,10.726-4.227,11.564-9.992
			l18.375-126.416l39.892,220.244c1.016,5.522,5.831,9.541,11.421,9.541h0.071c5.59,0,10.407-3.951,11.459-9.436l17.813-91.764
			h8.945l13.448,22.774c2.059,3.493,5.762,5.663,9.815,5.729c3.807,0.142,7.858-1.923,10.026-5.308l13.381-20.611h16.103
			c6.459,0,11.667-5.237,11.667-11.667c0-6.5-5.208-11.705-11.667-11.705h-22.429c-3.914,0-7.65,2.029-9.783,5.312l-6.567,10.129
			l-7.229-12.298c-2.099-3.558-5.938-5.728-10.06-5.728h-25.255c-5.591,0-10.412,3.952-11.457,9.433l-7.793,40.102L238.052,90.487
			c-1.011-5.625-6.148-9.885-11.702-9.608c-5.731,0.107-10.55,4.333-11.352,10.026l-27.214,187.234H153.03
			c-1.294,0-2.516,0.209-3.666,0.596l-18.48-102.595c-0.979-5.347-5.521-9.363-10.97-9.573c-6.01-0.838-10.337,3.281-11.772,8.557
			L79.672,278.172H32.445c-6.461,0-11.667,5.205-11.667,11.668C20.777,296.303,25.982,301.543,32.443,301.543L32.443,301.543z"/>
		<path display="inline" fill="#8ABD24" d="M387.836,294.144c-0.61,0.369-1.235,0.659-1.869,0.902
			c-5.135,1.95-11.079,0.002-14.011-4.847c-3.292-5.487-1.523-12.596,3.959-15.889c24.658-14.838,47.971-39.134,69.428-72.09
			l-18.234-10.405l55.777-32.583l0.336,64.6l-17.756-10.126C441.656,250.616,416.229,277.072,387.836,294.144L387.836,294.144z"/>
	</g>
	<g display="none">
		<path display="inline" fill="#FFFFFF" d="M32.443,301.543h56.064c5.241,0,9.851-3.527,11.251-8.558l17.186-62.18l24.558,136.374
			c1.081,5.975,6.459,10.166,12.505,9.543c6.01-0.529,10.654-5.555,10.654-11.603v-63.577h33.181c5.805,0,10.726-4.227,11.564-9.992
			l18.375-126.416l39.892,220.244c1.016,5.522,5.831,9.541,11.421,9.541h0.071c5.59,0,10.407-3.951,11.459-9.436l17.813-91.764
			h8.945l13.448,22.774c2.059,3.493,5.762,5.663,9.815,5.729c3.807,0.142,7.858-1.923,10.026-5.308l13.381-20.611h16.103
			c6.459,0,11.667-5.237,11.667-11.667c0-6.5-5.208-11.705-11.667-11.705h-22.429c-3.914,0-7.65,2.029-9.783,5.312l-6.567,10.129
			l-7.229-12.298c-2.099-3.558-5.938-5.728-10.06-5.728h-25.255c-5.591,0-10.412,3.952-11.457,9.433l-7.793,40.102L238.052,90.487
			c-1.011-5.625-6.148-9.885-11.702-9.608c-5.731,0.107-10.55,4.333-11.352,10.026l-27.214,187.234H153.03
			c-1.294,0-2.516,0.209-3.666,0.596l-18.48-102.595c-0.979-5.347-5.521-9.363-10.97-9.573c-6.01-0.838-10.337,3.281-11.772,8.557
			L79.672,278.172H32.445c-6.461,0-11.667,5.205-11.667,11.668C20.777,296.303,25.982,301.543,32.443,301.543L32.443,301.543z"/>
		<path display="inline" fill="#FFFFFF" d="M387.836,294.144c-0.61,0.369-1.235,0.659-1.869,0.902
			c-5.135,1.95-11.079,0.002-14.011-4.847c-3.292-5.487-1.523-12.596,3.959-15.889c24.658-14.838,47.971-39.134,69.428-72.09
			l-18.234-10.405l55.777-32.583l0.336,64.6l-17.756-10.126C441.656,250.616,416.229,277.072,387.836,294.144L387.836,294.144z"/>
	</g>
	<g>
		<path d="M32.443,301.543h56.064c5.241,0,9.851-3.527,11.251-8.558l17.186-62.18l24.558,136.374
			c1.081,5.975,6.459,10.166,12.505,9.543c6.01-0.529,10.654-5.555,10.654-11.603v-63.577h33.181c5.805,0,10.726-4.227,11.564-9.992
			l18.375-126.416l39.892,220.244c1.016,5.522,5.831,9.541,11.421,9.541h0.071c5.59,0,10.407-3.951,11.459-9.436l17.813-91.764
			h8.945l13.448,22.774c2.059,3.493,5.762,5.663,9.815,5.729c3.807,0.142,7.858-1.923,10.026-5.308l13.381-20.611h16.103
			c6.459,0,11.667-5.237,11.667-11.667c0-6.5-5.208-11.705-11.667-11.705h-22.429c-3.914,0-7.65,2.029-9.783,5.312l-6.567,10.129
			l-7.229-12.298c-2.099-3.558-5.938-5.728-10.06-5.728h-25.255c-5.591,0-10.412,3.952-11.457,9.433l-7.793,40.102L238.052,90.487
			c-1.011-5.625-6.148-9.885-11.702-9.608c-5.731,0.107-10.55,4.333-11.352,10.026l-27.214,187.234H153.03
			c-1.294,0-2.516,0.209-3.666,0.596l-18.48-102.595c-0.979-5.347-5.521-9.363-10.97-9.573c-6.01-0.838-10.337,3.281-11.772,8.557
			L79.672,278.172H32.445c-6.461,0-11.667,5.205-11.667,11.668C20.777,296.303,25.982,301.543,32.443,301.543L32.443,301.543z"/>
		<path d="M387.836,294.144c-0.61,0.369-1.235,0.659-1.869,0.902c-5.135,1.95-11.079,0.002-14.011-4.847
			c-3.292-5.487-1.523-12.596,3.959-15.889c24.658-14.838,47.971-39.134,69.428-72.09l-18.234-10.405l55.777-32.583l0.336,64.6
			l-17.756-10.126C441.656,250.616,416.229,277.072,387.836,294.144L387.836,294.144z"/>
	</g>
</g>
</svg>
