<?xml version="1.0" encoding="utf-8"?>
<!-- Generator: Adobe Illustrator 16.0.3, SVG Export Plug-In . SVG Version: 6.00 Build 0)  -->
<!DOCTYPE svg PUBLIC "-//W3C//DTD SVG 1.1//EN" "http://www.w3.org/Graphics/SVG/1.1/DTD/svg11.dtd">
<svg version="1.1" id="Layer_1" xmlns="http://www.w3.org/2000/svg" xmlns:xlink="http://www.w3.org/1999/xlink" x="0px" y="0px"
	 width="512px" height="512px" viewBox="0 0 512 512" enable-background="new 0 0 512 512" xml:space="preserve">
<g id="Temperatura_1_">
	<g>
		<g>
			<g>
				<defs>
					<rect id="SVGID_1_" x="151.319" y="18.5" width="269.12" height="473.033"/>
				</defs>
				<clipPath id="SVGID_2_">
					<use xlink:href="#SVGID_1_"  overflow="visible"/>
				</clipPath>
				<path clip-path="url(#SVGID_2_)" d="M420.533,78.871v20.098h-77.878V78.871H420.533z M387.876,122.669h-45.221v20.1h45.221
					V122.669z M342.656,186.569h77.878v-20.098h-77.878V186.569z M387.876,210.279h-45.221v20.1h45.221V210.279z M342.656,274.174
					h77.878v-20.097h-77.878V274.174z M354.798,388.688c0,56.101-45.641,101.746-101.741,101.746
					c-56.097,0-101.74-45.642-101.74-101.746c0-36.354,19.089-69.39,50.243-87.671V70.367c0-28.395,23.102-51.496,51.497-51.496
					c28.4,0,51.499,23.101,51.499,51.496v230.655C335.707,319.271,354.798,352.325,354.798,388.688L354.798,388.688z
					 M334.703,388.688c0-30.844-17.144-58.733-44.75-72.75l-5.494-2.794V70.376c0-17.321-14.089-31.399-31.402-31.399
					c-17.312,0-31.396,14.077-31.396,31.399v242.772l-5.499,2.791c-27.6,14.031-44.745,41.915-44.745,72.75
					c0,45.018,36.626,81.646,81.64,81.646C298.071,470.336,334.703,433.702,334.703,388.688L334.703,388.688z M317.957,388.688
					c0,35.786-29.109,64.895-64.9,64.895c-35.778,0-64.897-29.108-64.897-64.895c0-29.331,19.82-55.085,48.2-62.628l3.726-0.998
					V201.117h25.952v123.935l3.732,1.008C298.156,333.603,317.957,359.37,317.957,388.688L317.957,388.688z M256.274,345.43
					c-1.547-6.869-8.461-11.391-15.503-9.787c-24.599,5.57-41.783,27.084-41.783,52.327c0,7.144,5.823,12.962,12.961,12.962
					c7.148,0,12.966-5.815,12.966-12.962c0-12.834,9.064-24.208,21.573-27.03C253.442,359.339,257.844,352.388,256.274,345.43
					L256.274,345.43z"/>
			</g>
		</g>
	</g>
	<g display="none">
		<g display="inline">
			<g>
				<defs>
					<rect id="SVGID_3_" x="151.319" y="18.5" width="269.12" height="473.033"/>
				</defs>
				<clipPath id="SVGID_4_">
					<use xlink:href="#SVGID_3_"  overflow="visible"/>
				</clipPath>
				<path clip-path="url(#SVGID_4_)" fill="#FFFFFF" d="M420.533,78.871v20.098h-77.878V78.871H420.533z M387.876,122.669h-45.221
					v20.1h45.221V122.669z M342.656,186.569h77.878v-20.098h-77.878V186.569z M387.876,210.279h-45.221v20.1h45.221V210.279z
					 M342.656,274.174h77.878v-20.097h-77.878V274.174z M354.798,388.688c0,56.101-45.641,101.746-101.741,101.746
					c-56.097,0-101.74-45.642-101.74-101.746c0-36.354,19.089-69.39,50.243-87.671V70.367c0-28.395,23.102-51.496,51.497-51.496
					c28.4,0,51.499,23.101,51.499,51.496v230.655C335.707,319.271,354.798,352.325,354.798,388.688L354.798,388.688z
					 M334.703,388.688c0-30.844-17.144-58.733-44.75-72.75l-5.494-2.794V70.376c0-17.321-14.089-31.399-31.402-31.399
					c-17.312,0-31.396,14.077-31.396,31.399v242.772l-5.499,2.791c-27.6,14.031-44.745,41.915-44.745,72.75
					c0,45.018,36.626,81.646,81.64,81.646C298.071,470.336,334.703,433.702,334.703,388.688L334.703,388.688z M317.957,388.688
					c0,35.786-29.109,64.895-64.9,64.895c-35.778,0-64.897-29.108-64.897-64.895c0-29.331,19.82-55.085,48.2-62.628l3.726-0.998
					V201.117h25.952v123.935l3.732,1.008C298.156,333.603,317.957,359.37,317.957,388.688L317.957,388.688z M256.274,345.43
					c-1.547-6.869-8.461-11.391-15.503-9.787c-24.599,5.57-41.783,27.084-41.783,52.327c0,7.144,5.823,12.962,12.961,12.962
					c7.148,0,12.966-5.815,12.966-12.962c0-12.834,9.064-24.208,21.573-27.03C253.442,359.339,257.844,352.388,256.274,345.43
					L256.274,345.43z"/>
			</g>
		</g>
	</g>
	<g display="none">
		<g display="inline">
			<g>
				<defs>
					<rect id="SVGID_5_" x="151.319" y="18.5" width="269.12" height="473.033"/>
				</defs>
				<clipPath id="SVGID_6_">
					<use xlink:href="#SVGID_5_"  overflow="visible"/>
				</clipPath>
				<path clip-path="url(#SVGID_6_)" fill="#89BD26" d="M420.533,78.871v20.098h-77.878V78.871H420.533z M387.876,122.669h-45.221
					v20.1h45.221V122.669z M342.656,186.569h77.878v-20.098h-77.878V186.569z M387.876,210.279h-45.221v20.1h45.221V210.279z
					 M342.656,274.174h77.878v-20.097h-77.878V274.174z M354.798,388.688c0,56.101-45.641,101.746-101.741,101.746
					c-56.097,0-101.74-45.642-101.74-101.746c0-36.354,19.089-69.39,50.243-87.671V70.367c0-28.395,23.102-51.496,51.497-51.496
					c28.4,0,51.499,23.101,51.499,51.496v230.655C335.707,319.271,354.798,352.325,354.798,388.688L354.798,388.688z
					 M334.703,388.688c0-30.844-17.144-58.733-44.75-72.75l-5.494-2.794V70.376c0-17.321-14.089-31.399-31.402-31.399
					c-17.312,0-31.396,14.077-31.396,31.399v242.772l-5.499,2.791c-27.6,14.031-44.745,41.915-44.745,72.75
					c0,45.018,36.626,81.646,81.64,81.646C298.071,470.336,334.703,433.702,334.703,388.688L334.703,388.688z M317.957,388.688
					c0,35.786-29.109,64.895-64.9,64.895c-35.778,0-64.897-29.108-64.897-64.895c0-29.331,19.82-55.085,48.2-62.628l3.726-0.998
					V201.117h25.952v123.935l3.732,1.008C298.156,333.603,317.957,359.37,317.957,388.688L317.957,388.688z M256.274,345.43
					c-1.547-6.869-8.461-11.391-15.503-9.787c-24.599,5.57-41.783,27.084-41.783,52.327c0,7.144,5.823,12.962,12.961,12.962
					c7.148,0,12.966-5.815,12.966-12.962c0-12.834,9.064-24.208,21.573-27.03C253.442,359.339,257.844,352.388,256.274,345.43
					L256.274,345.43z"/>
			</g>
		</g>
	</g>
</g>
</svg>
