<?xml version="1.0" encoding="utf-8"?>
<!-- Generator: Adobe Illustrator 16.0.3, SVG Export Plug-In . SVG Version: 6.00 Build 0)  -->
<!DOCTYPE svg PUBLIC "-//W3C//DTD SVG 1.1//EN" "http://www.w3.org/Graphics/SVG/1.1/DTD/svg11.dtd">
<svg version="1.1" id="Layer_1" xmlns="http://www.w3.org/2000/svg" xmlns:xlink="http://www.w3.org/1999/xlink" x="0px" y="0px"
	 width="512px" height="512px" viewBox="0 0 512 512" enable-background="new 0 0 512 512" xml:space="preserve">
<g id="Baja_actividad">
	<g display="none">
		<path display="inline" fill="#8ABD24" d="M28.608,290.918H87.21c5.479,0,10.297-3.691,11.76-8.946l17.964-64.995l25.669,142.547
			c1.131,6.245,6.752,10.627,13.071,9.973c6.283-0.552,11.137-5.806,11.137-12.125v-66.453h34.684
			c6.067,0,11.211-4.42,12.088-10.445l19.206-132.139l41.698,230.213c1.061,5.771,6.094,9.972,11.938,9.972h0.075
			c5.842,0,10.879-4.131,11.978-9.86l18.619-95.919h9.351l14.056,23.806c2.152,3.651,6.023,5.919,10.26,5.988
			c3.979,0.147,8.214-2.008,10.479-5.547l13.987-21.544h16.83c6.752,0,12.197-5.476,12.197-12.196
			c0-6.792-5.445-12.233-12.197-12.233h-23.442c-4.09,0-7.999,2.12-10.226,5.551l-6.864,10.587l-7.557-12.854
			c-2.192-3.72-6.208-5.986-10.515-5.986h-26.398c-5.842,0-10.884,4.129-11.976,9.859l-8.146,41.917l-43.412-239.78
			c-1.057-5.879-6.426-10.332-12.231-10.043c-5.992,0.113-11.028,4.528-11.866,10.479L190.98,266.454h-36.328
			c-1.352,0-2.63,0.214-3.832,0.621l-19.316-107.239c-1.023-5.589-5.771-9.787-11.466-10.006
			c-6.282-0.876-10.805,3.429-12.306,8.944L77.975,266.486H28.61c-6.753,0-12.195,5.441-12.195,12.195
			C16.413,285.437,21.855,290.918,28.608,290.918L28.608,290.918z"/>
		<path display="inline" fill="#8ABD24" d="M400.088,262.985c29.677,17.841,56.258,45.496,81.144,84.074l18.561-10.584
			l-0.353,67.525l-58.302-34.058l19.059-10.877c-22.427-34.443-46.795-59.843-72.569-75.35c-5.729-3.441-7.58-10.877-4.141-16.608
			c3.066-5.068,9.278-7.105,14.646-5.067C398.794,262.293,399.45,262.6,400.088,262.985L400.088,262.985z"/>
	</g>
	<g display="none">
		<path display="inline" fill="#FFFFFF" d="M28.608,290.918H87.21c5.479,0,10.297-3.691,11.76-8.946l17.964-64.995l25.669,142.547
			c1.131,6.245,6.752,10.627,13.071,9.973c6.283-0.552,11.137-5.806,11.137-12.125v-66.453h34.684
			c6.067,0,11.211-4.42,12.088-10.445l19.206-132.139l41.698,230.213c1.061,5.771,6.094,9.972,11.938,9.972h0.075
			c5.842,0,10.879-4.131,11.978-9.86l18.619-95.919h9.351l14.056,23.806c2.152,3.651,6.023,5.919,10.26,5.988
			c3.979,0.147,8.214-2.008,10.479-5.547l13.987-21.544h16.83c6.752,0,12.197-5.476,12.197-12.196
			c0-6.792-5.445-12.233-12.197-12.233h-23.442c-4.09,0-7.999,2.12-10.226,5.551l-6.864,10.587l-7.557-12.854
			c-2.192-3.72-6.208-5.986-10.515-5.986h-26.398c-5.842,0-10.884,4.129-11.976,9.859l-8.146,41.917l-43.412-239.78
			c-1.057-5.879-6.426-10.332-12.231-10.043c-5.992,0.113-11.028,4.528-11.866,10.479L190.98,266.454h-36.328
			c-1.352,0-2.63,0.214-3.832,0.621l-19.316-107.239c-1.023-5.589-5.771-9.787-11.466-10.006
			c-6.282-0.876-10.805,3.429-12.306,8.944L77.975,266.486H28.61c-6.753,0-12.195,5.441-12.195,12.195
			C16.413,285.437,21.855,290.918,28.608,290.918L28.608,290.918z"/>
		<path display="inline" fill="#FFFFFF" d="M400.088,262.985c29.677,17.841,56.258,45.496,81.144,84.074l18.561-10.584
			l-0.353,67.525l-58.302-34.058l19.059-10.877c-22.427-34.443-46.795-59.843-72.569-75.35c-5.729-3.441-7.58-10.877-4.141-16.608
			c3.066-5.068,9.278-7.105,14.646-5.067C398.794,262.293,399.45,262.6,400.088,262.985L400.088,262.985z"/>
	</g>
	<g>
		<path d="M28.608,290.918H87.21c5.479,0,10.297-3.691,11.76-8.946l17.964-64.995l25.669,142.547
			c1.131,6.245,6.752,10.627,13.071,9.973c6.283-0.552,11.137-5.806,11.137-12.125v-66.453h34.684
			c6.067,0,11.211-4.42,12.088-10.445l19.206-132.139l41.698,230.213c1.061,5.771,6.094,9.972,11.938,9.972h0.075
			c5.842,0,10.879-4.131,11.978-9.86l18.619-95.919h9.351l14.056,23.806c2.152,3.651,6.023,5.919,10.26,5.988
			c3.979,0.147,8.214-2.008,10.479-5.547l13.987-21.544h16.83c6.752,0,12.197-5.476,12.197-12.196
			c0-6.792-5.445-12.233-12.197-12.233h-23.442c-4.09,0-7.999,2.12-10.226,5.551l-6.864,10.587l-7.557-12.854
			c-2.192-3.72-6.208-5.986-10.515-5.986h-26.398c-5.842,0-10.884,4.129-11.976,9.859l-8.146,41.917l-43.412-239.78
			c-1.057-5.879-6.426-10.332-12.231-10.043c-5.992,0.113-11.028,4.528-11.866,10.479L190.98,266.454h-36.328
			c-1.352,0-2.63,0.214-3.832,0.621l-19.316-107.239c-1.023-5.589-5.771-9.787-11.466-10.006
			c-6.282-0.876-10.805,3.429-12.306,8.944L77.975,266.486H28.61c-6.753,0-12.195,5.441-12.195,12.195
			C16.413,285.437,21.855,290.918,28.608,290.918L28.608,290.918z"/>
		<path d="M400.088,262.985c29.677,17.841,56.258,45.496,81.144,84.074l18.561-10.584l-0.353,67.525l-58.302-34.058l19.059-10.877
			c-22.427-34.443-46.795-59.843-72.569-75.35c-5.729-3.441-7.58-10.877-4.141-16.608c3.066-5.068,9.278-7.105,14.646-5.067
			C398.794,262.293,399.45,262.6,400.088,262.985L400.088,262.985z"/>
	</g>
</g>
</svg>
