<?xml version="1.0" encoding="utf-8"?>
<!-- Generator: Adobe Illustrator 16.0.3, SVG Export Plug-In . SVG Version: 6.00 Build 0)  -->
<!DOCTYPE svg PUBLIC "-//W3C//DTD SVG 1.1//EN" "http://www.w3.org/Graphics/SVG/1.1/DTD/svg11.dtd">
<svg version="1.1" id="Layer_1" xmlns="http://www.w3.org/2000/svg" xmlns:xlink="http://www.w3.org/1999/xlink" x="0px" y="0px"
	 width="512px" height="512px" viewBox="0 0 512 512" enable-background="new 0 0 512 512" xml:space="preserve">
<g id="Ovejas">
	<path d="M454.595,352.303c-5.331,4.192-8.132,10.343-8.242,16.647c-0.104,0.627-0.223,1.27-0.284,1.942l-3.368,37.371
		c0,0.405,0,0.833,0,1.242c-0.107,2.383-1.232,7.286-2.586,9.447c-1.067,0.044-2.307,0.146-3.55,0.219
		c-1.545,0.142-3.698,0.344-4.772,0.249c-0.778-0.746-2.586-3.447-4.693-10.331c-5.203-18.308-10.864-42.749-10.976-42.917
		c-2.261-9.791-10.924-16.677-20.972-16.677H228.289c-10.148,0-19.033,7.256-21.037,17.273c-2.196,10.588-3.489,14.956-5.038,20.059
		c-1.507,4.941-3.225,10.494-5.592,21.404c-2.283,10.97-2.754,10.97-13.77,10.496c-0.218-1.676-0.218-3.612-0.069-5.049
		c0.153-1.251,0.321-2.433,0.153-3.62l-0.256-11.229c0-1.031-0.046-2.004-0.218-2.902c-1.469-24.377-13.124-61.169-51.744-68.479
		c-16.631-3.149-28.248-10.156-35.565-21.408c-15.641-24.23-7.1-60.719-7.034-60.996c0.275-1.163,0.539-2.261,0.646-3.378
		l2.796-34.578c0.539-6.583-1.936-12.971-6.606-17.553c-4.904-4.412-11.467-6.495-17.924-5.55l-39.007,5.634
		c-0.214,0.025-0.517,0.107-0.688,0.107c-0.107,0.066-6.197,0.302-11.617-7.295c-5.642-7.786,3.867-20.328,5.42-22.372
		l28.313-27.691c0.149-0.173,0.218-0.326,0.474-0.494c35.825-37.329,75.773-8.543,80.146-5.273c0.539,0.494,1.178,0.863,1.832,1.251
		c11.444,11.506,39.203,38.101,59.425,47.224c24.228,10.908,52.927,11.989,56.155,12.095c1.028,0.043,2.111,0,3.14-0.152
		l3.745,0.046c0.172-0.046,0.429,0,0.646-0.046c0.489,0,51.213-1.461,105.383-1.073c2.585,0.042,5.377,0,8.347,0
		c45.701-0.216,92.129,3.375,113.647,49.638C514.124,303.887,457.326,350.146,454.595,352.303"/>
</g>
</svg>
